<svg xmlns="http://www.w3.org/2000/svg" xmlns:xlink="http://www.w3.org/1999/xlink" xml:space="preserve" width="1378px" height="202px" version="1.1" viewBox="0 0 664 97" shape-rendering="geometricPrecision" text-rendering="geometricPrecision" image-rendering="optimizeQuality" fill-rule="evenodd" clip-rule="evenodd"> <defs> <linearGradient id="id0" gradientUnits="userSpaceOnUse" x1="471.731" y1="3.21329" x2="617.891" y2="132.219"> <stop offset="0" stop-opacity="1" stop-color="#78B833" /> <stop offset="0.290196" stop-opacity="1" stop-color="#217843" /> <stop offset="0.878431" stop-opacity="1" stop-color="#156A3C" /> <stop offset="0.988235" stop-opacity="1" stop-color="#78B833" /> <stop offset="1" stop-opacity="1" stop-color="#78B833" /> </linearGradient> <linearGradient id="id1" gradientUnits="userSpaceOnUse" xlink:href="#id0" x1="130.056" y1="2.47924" x2="331.387" y2="132.491"> </linearGradient> <linearGradient id="id2" gradientUnits="userSpaceOnUse" xlink:href="#id0" x1="492.103" y1="32.9238" x2="588.2" y2="78.303"> </linearGradient> </defs> <g id="Слой_x0020_1"> <metadata id="CorelCorpID_0Corel-Layer" /> <g id="_2482915753936"> <path d="M147 0l110 0 111 0 27 48 -26 49 -112 0 -110 0 -121 0 -26 -49 26 -48 121 0zm0 89l110 0 107 0 22 -41 -22 -40 -107 0 -110 0 -116 0 -22 40 22 41 116 0z" fill="url(#id1)" fill-rule="nonzero" /> <path d="M578 66l28 0c6,0 12,0 12,-7l0 -7c0,-7 -6,-7 -12,-7l-16 0c-2,0 -3,0 -3,-2l0 -3c0,-2 1,-2 3,-2l26 0 0 -6 -26 0c-6,0 -12,0 -12,7l0 4c0,7 6,7 12,7l17 0c1,0 3,0 3,2l0 7c0,1 -2,1 -3,1l-29 0 0 6zm-42 -20l0 -8 20 0c2,0 3,0 3,2l0 5c0,1 -1,1 -3,1l-20 0zm34 20l-14 -14c6,0 12,0 12,-7l0 -6c0,-7 -6,-7 -12,-7l-28 0 0 34 8 0 0 -14 10 0 13 14 11 0zm-140 -7c0,7 6,7 12,7l26 0 0 -6 -26 0c-2,0 -3,0 -3,-1l0 -19c0,-2 1,-2 3,-2l26 0 0 -6 -26 0c-6,0 -12,0 -12,7l0 20zm61 -8l6 -12 6 12 -12 0zm-16 15l9 0 5 -10 17 0 5 10 9 0 -17 -34 -12 0 -16 34z" fill="url(#id2)" fill-rule="nonzero" /> <g> <polygon points="351,32 340,32 340,32 330,42 328,44 327,42 317,32 306,32 323,49 320,52 306,66 317,66 328,54 340,66 351,66 334,49 " fill="#FEFEFE" fill-rule="nonzero" /> <polygon points="301,66 301,60 271,60 271,50 298,50 298,45 271,45 271,38 301,38 301,32 301,32 263,32 263,32 263,66 301,66 " fill="#FEFEFE" fill-rule="nonzero" /> <polygon points="223,42 245,66 255,66 255,32 246,32 246,32 246,54 246,56 224,32 224,32 214,32 214,38 214,66 223,66 " fill="#FEFEFE" fill-rule="nonzero" /> <path d="M207 59l0 -20c0,-2 -1,-4 -2,-5 0,0 0,0 0,0 0,0 0,0 -1,0 0,0 0,0 0,-1 0,0 -1,0 -1,0 0,0 0,0 0,0 0,0 -1,0 -1,0 0,0 0,0 0,0 -3,-1 -5,-1 -8,-1l-16 0c-2,0 -4,0 -6,0 -2,1 -3,1 -4,2 0,0 0,0 -1,0 0,1 0,1 0,1 -1,1 -1,1 -1,2 0,0 0,1 0,2l0 0 0 20c0,7 6,7 12,7l16 0c6,0 13,0 13,-7zm-9 0l0 0c0,1 -2,1 -3,1l-17 0c-2,0 -3,0 -3,-1l0 -20c0,-1 1,-1 3,-1l17 0c1,0 3,0 3,1l0 20z" fill="#FEFEFE" fill-rule="nonzero" /> <polygon points="130,61 137,53 150,66 161,66 143,48 159,32 148,32 143,37 131,49 130,50 130,49 130,32 121,32 121,40 121,66 130,66 " fill="#FEFEFE" fill-rule="nonzero" /> <polygon points="105,43 105,66 113,66 113,32 102,32 95,45 89,58 76,32 64,32 64,40 64,66 73,66 73,43 85,66 93,66 " fill="#FEFEFE" fill-rule="nonzero" /> <polygon points="48,66 57,66 57,32 57,32 48,32 " fill="#FEFEFE" fill-rule="nonzero" /> </g> <path d="M633 9l-242 0 22 39 -22 41 242 0 22 -41 -22 -39zm-248 -8l253 0 26 47 -26 49 -260 0 25 -49 -26 -47c3,0 5,0 7,0l1 0z" fill="url(#id0)" fill-rule="nonzero" /> </g> </g> </svg>
